<?xml version="1.0" encoding="UTF-8"?>
<svg width="144px" height="28px" viewBox="0 0 144 28" version="1.1" xmlns="http://www.w3.org/2000/svg" xmlns:xlink="http://www.w3.org/1999/xlink">
    <!-- Generator: Sketch 48.1 (47250) - http://www.bohemiancoding.com/sketch -->
    <title>Logo</title>
    <desc>Created with Sketch.</desc>
    <defs></defs>
    <g id="Desktop" stroke="none" stroke-width="1" fill="none" fill-rule="evenodd" transform="translate(-28.000000, -21.000000)">
        <g id="Sidebar">
            <g id="Logo" transform="translate(24.000000, 19.000000)">
                <text id="CURATOR" font-family="InputSansNarrow-Bold, Input Sans Narrow" font-size="20" font-style="condensed" font-weight="bold" line-spacing="32" fill="#FFFFFF">
                    <tspan x="49.6107383" y="26">CURATOR</tspan>
                </text>
                <g id="Logo-/-Black">
                    <g id="film-reel" transform="translate(4.100000, 2.000000)">
                        <path d="M14.8625,3 C8.36253571,3 3.075,8.15857143 3.075,14.5 C3.075,20.8414286 8.36253571,26 14.8625,26 C21.3624643,26 26.65,20.8414286 26.65,14.5 C26.65,8.15857143 21.3624643,3 14.8625,3 Z M14.8625,4.64409704 C16.0030598,4.64409704 16.9276954,5.54618059 16.9276954,6.65892183 C16.9276954,7.77166307 16.0030598,8.67374663 14.8625,8.67374663 C13.7219402,8.67374663 12.7973046,7.77166307 12.7973046,6.65892183 C12.7966056,5.54618059 13.7206693,4.64353908 14.8612291,4.64285714 C14.8616739,4.64285714 14.8620552,4.64285714 14.8625,4.64285714 L14.8625,4.64409704 Z M6.82412399,16.5148248 C5.68356422,16.5148248 4.75892857,15.6127412 4.75892857,14.5 C4.75892857,13.3872588 5.68356422,12.4851752 6.82412399,12.4851752 C7.96468376,12.4851752 8.88931941,13.3872588 8.88931941,14.5 C8.88931941,15.6127412 7.96468376,16.5148248 6.82412399,16.5148248 Z M14.8625,24.3571429 C13.7219402,24.3571429 12.7973046,23.4550593 12.7973046,22.3423181 C12.7973046,21.2295768 13.7219402,20.3274933 14.8625,20.3274933 C16.0030598,20.3274933 16.9276954,21.2295768 16.9276954,22.3423181 C16.9276954,23.4550593 16.0030598,24.3571429 14.8625,24.3571429 Z M14.8625,17.2234232 C13.321483,17.2234232 12.0722621,16.0046712 12.0722621,14.5012399 C12.0722621,12.9978086 13.321483,11.7790566 14.8625,11.7790566 C16.4030087,11.7790566 17.6520389,12.9970647 17.6527379,14.5 C17.6527379,16.0034313 16.403517,17.2221833 14.8625,17.2221833 L14.8625,17.2234232 Z M22.900876,16.5148248 C21.7603162,16.5148248 20.8356806,15.6127412 20.8356806,14.5 C20.8356806,13.3872588 21.7603162,12.4851752 22.900876,12.4851752 C24.0414358,12.4851752 24.9660714,13.3872588 24.9660714,14.5 C24.9660714,15.6127412 24.0414358,16.5148248 22.900876,16.5148248 Z" id="Shape" fill="#B1FFFF" fill-rule="nonzero"></path>
                        <g id="Group" fill="#304FFE" fill-rule="nonzero">
                            <path d="M19.3178247,26.2099519 C24.3830714,24.2486042 28.1437573,19.4287547 28.1437573,13.6060606 C28.1437573,6.10835496 21.8435852,0.0303030303 14.0718787,0.0303030303 C6.30017211,0.0303030303 0,6.10835496 0,13.6060606 C0,21.1037663 6.30017211,27.1818182 14.0718787,27.1818182 L34.85,27.1818182 L34.85,26.2099519 L19.3178247,26.2099519 Z M1.00738281,13.5757576 C1.00738281,6.64121212 6.86783232,1 14.0718787,1 C21.275925,1 27.1363745,6.64121212 27.1363745,13.5757576 C27.1363745,20.510303 21.275925,26.1515152 14.0718787,26.1515152 C6.86783232,26.1515152 1.00738281,20.510303 1.00738281,13.5757576 Z" id="Shape"></path>
                            <path d="M14.0718787,10.429697 C12.2668375,10.429697 10.803551,11.8382424 10.803551,13.5757576 C10.803551,15.3132727 12.2668375,16.7218182 14.0718787,16.7218182 C15.8769198,16.7218182 17.3402063,15.3132727 17.3402063,13.5757576 C17.3370582,11.8394545 15.8756605,10.4327273 14.0718787,10.429697 Z M14.0718787,15.7521212 C12.8231647,15.7521212 11.8109339,14.7777576 11.8109339,13.5757576 C11.8109339,12.3737576 12.8231647,11.3993939 14.0718787,11.3993939 C15.3205926,11.3993939 16.3328235,12.3737576 16.3328235,13.5757576 C16.3297384,14.7764848 15.3192704,15.7491515 14.0718787,15.7521212 Z" id="Shape"></path>
                            <path d="M14.0718787,8.36363636 C15.4801998,8.36363636 16.6218164,7.26472727 16.6218164,5.90909091 C16.6218164,4.55345455 15.4801998,3.45454545 14.0718787,3.45454545 C12.6635575,3.45454545 11.5219409,4.55345455 11.5219409,5.90909091 C11.5233261,7.26412121 12.6641871,8.36230303 14.0718787,8.36363636 Z M14.0718787,4.42424242 C14.9238097,4.42424242 15.6144336,5.0890303 15.6144336,5.90909091 C15.6144336,6.72915152 14.9238097,7.39393939 14.0718787,7.39393939 C13.2199476,7.39393939 12.5293237,6.72915152 12.5293237,5.90909091 C12.5303941,5.08945455 13.2203883,4.42527273 14.0718787,4.42424242 Z" id="Shape"></path>
                            <path d="M14.0718787,18.7878788 C12.6635575,18.7878788 11.5219409,19.8867879 11.5219409,21.2424242 C11.5219409,22.5980606 12.6635575,23.6969697 14.0718787,23.6969697 C15.4801998,23.6969697 16.6218164,22.5980606 16.6218164,21.2424242 C16.6204313,19.8873939 15.4795702,18.7892121 14.0718787,18.7878788 Z M14.0718787,22.7272727 C13.2199476,22.7272727 12.5293237,22.0624848 12.5293237,21.2424242 C12.5293237,20.4223636 13.2199476,19.7575758 14.0718787,19.7575758 C14.9238097,19.7575758 15.6144336,20.4223636 15.6144336,21.2424242 C15.6133632,22.0620606 14.923369,22.7262424 14.0718787,22.7272727 Z" id="Shape"></path>
                            <path d="M24.5851775,13.5757576 C24.5851775,12.2201212 23.443561,11.1212121 22.0352398,11.1212121 C20.6269186,11.1212121 19.4853021,12.2201212 19.4853021,13.5757576 C19.4853021,14.9313939 20.6269186,16.030303 22.0352398,16.030303 C22.0356805,16.030303 22.0360583,16.030303 22.036499,16.030303 C23.443561,16.0279394 24.5834146,14.9301818 24.5851775,13.5757576 Z M22.036499,15.0606061 C21.184568,15.0606061 20.4939441,14.3958182 20.4939441,13.5757576 C20.4939441,12.755697 21.184568,12.0909091 22.036499,12.0909091 C22.8884301,12.0909091 23.579054,12.755697 23.579054,13.5757576 C23.5779836,14.3953939 22.8879893,15.0595758 22.036499,15.0606061 Z" id="Shape"></path>
                            <path d="M6.1072583,11.1212121 C4.69893713,11.1212121 3.55732056,12.2201212 3.55732056,13.5757576 C3.55732056,14.9313939 4.69893713,16.030303 6.1072583,16.030303 C7.51557947,16.030303 8.65719604,14.9313939 8.65719604,13.5757576 C8.65543312,12.2208485 7.51482394,11.1229091 6.1072583,11.1212121 Z M6.1072583,15.0606061 C5.25532725,15.0606061 4.56470337,14.3958182 4.56470337,13.5757576 C4.56470337,12.755697 5.25532725,12.0909091 6.1072583,12.0909091 C6.95918935,12.0909091 7.64981323,12.755697 7.64981323,13.5757576 C7.64874289,14.3953939 6.95874862,15.0595758 6.1072583,15.0606061 Z" id="Shape"></path>
                        </g>
                    </g>
                </g>
            </g>
        </g>
    </g>
</svg>