<?xml version="1.0" encoding="UTF-8"?>
<svg width="145px" height="28px" viewBox="0 0 145 28" version="1.1" xmlns="http://www.w3.org/2000/svg" xmlns:xlink="http://www.w3.org/1999/xlink">
    <!-- Generator: Sketch 48.1 (47250) - http://www.bohemiancoding.com/sketch -->
    <title>logo</title>
    <desc>Created with Sketch.</desc>
    <defs></defs>
    <g id="Page-1" stroke="none" stroke-width="1" fill="none" fill-rule="evenodd">
        <g id="logo">
            <g id="CURATOR" transform="translate(45.000000, 0.000000)" fill="#FFFFFF">
                <path d="M8.33801103,24.1818182 C6.28951594,24.1818182 4.78347039,23.7484892 3.81982921,22.8818182 C2.85618803,22.0151472 2.37437466,20.7878867 2.37437466,19.2 L2.37437466,14.3272727 C2.37437466,12.7272647 2.8592183,11.4848529 3.82892012,10.6 C4.79862194,9.71514709 6.30769775,9.27272727 8.35619285,9.27272727 C10.2713539,9.27272727 11.6986124,9.68484436 12.638011,10.5090909 C13.5774097,11.3333375 14.0895258,12.6363547 14.1743747,14.4181818 L11.1743747,14.6 C11.0895258,13.4606004 10.8349828,12.6727295 10.4107383,12.2363636 C9.98649375,11.7999978 9.28347048,11.5818182 8.30164739,11.5818182 C7.21073285,11.5818182 6.44710412,11.7999978 6.0107383,12.2363636 C5.57437248,12.6727295 5.35619285,13.4484793 5.35619285,14.5636364 L5.35619285,18.9636364 C5.35619285,20.0545509 5.57437248,20.8121191 6.0107383,21.2363636 C6.44710412,21.6606082 7.21073285,21.8727273 8.30164739,21.8727273 C9.30771303,21.8727273 10.0228574,21.6545476 10.4471019,21.2181818 C10.8713465,20.781816 11.1137683,20.0181873 11.1743747,18.9272727 L14.1743747,19.1090909 C14.1137683,20.8424329 13.610743,22.121208 12.6652838,22.9454545 C11.7198245,23.7697011 10.2774147,24.1818182 8.33801103,24.1818182 Z M22.8834656,24.1818182 C20.8955768,24.1818182 19.4561973,23.7545497 18.5652838,22.9 C17.6743702,22.0454503 17.2289201,20.7151605 17.2289201,18.9090909 L17.2289201,9.45454545 L20.2107383,9.45454545 L20.2107383,18.7272727 C20.2107383,19.8303085 20.3986152,20.6121189 20.7743747,21.0727273 C21.1501341,21.5333356 21.8531574,21.7636364 22.8834656,21.7636364 C23.9137738,21.7636364 24.616797,21.5333356 24.9925565,21.0727273 C25.3683159,20.6121189 25.5561928,19.8303085 25.5561928,18.7272727 L25.5561928,9.45454545 L28.5561928,9.45454545 L28.5561928,18.9090909 C28.5561928,20.7151605 28.1107428,22.0454503 27.2198292,22.9 C26.3289157,23.7545497 24.8834756,24.1818182 22.8834656,24.1818182 Z M35.0652838,16.4 L38.1925565,16.4 C38.8955903,16.4 39.3986156,16.2696983 39.7016474,16.0090909 C40.0046792,15.7484835 40.1561928,15.2848518 40.1561928,14.6181818 L40.1561928,13.4909091 C40.1561928,12.8363604 40.0046792,12.3848497 39.7016474,12.1363636 C39.3986156,11.8878775 38.8955903,11.7636364 38.1925565,11.7636364 L35.0652838,11.7636364 L35.0652838,16.4 Z M35.0652838,24 L32.0834656,24 L32.0834656,9.45454545 L38.7198292,9.45454545 C40.1380181,9.45454545 41.2289163,9.79696627 41.9925565,10.4818182 C42.7561967,11.1666701 43.138011,12.1393876 43.138011,13.4 L43.138011,14.6363636 C43.138011,15.6909144 42.8895287,16.5454513 42.3925565,17.2 C41.8955843,17.8545487 41.1743794,18.2969685 40.2289201,18.5272727 L43.5561928,24 L40.1561928,24 L36.9198292,18.6909091 L35.0652838,18.6909091 L35.0652838,24 Z M53.4834656,18.0727273 L51.8107383,11.7636364 L50.1561928,18.0727273 L53.4834656,18.0727273 Z M55.0289201,24 L54.0834656,20.3818182 L49.538011,20.3818182 L48.5925565,24 L45.7925565,24 L50.0289201,9.45454545 L53.8834656,9.45454545 L58.0834656,24 L55.0289201,24 Z M62.938011,24 L62.938011,11.7636364 L58.7743747,11.7636364 L58.7743747,9.45454545 L70.1016474,9.45454545 L70.1016474,11.7636364 L65.938011,11.7636364 L65.938011,24 L62.938011,24 Z M78.4471019,24.1818182 C76.6046685,24.1818182 75.2016522,23.7454589 74.238011,22.8727273 C73.2743698,21.9999956 72.7925565,20.7697049 72.7925565,19.1818182 L72.7925565,14.3272727 C72.7925565,12.7151435 73.2774001,11.4697014 74.2471019,10.5909091 C75.2168038,9.71211682 76.6228503,9.27272727 78.4652838,9.27272727 C80.3077172,9.27272727 81.7107335,9.71211682 82.6743747,10.5909091 C83.6380158,11.4697014 84.1198292,12.7151435 84.1198292,14.3272727 L84.1198292,19.1818182 C84.1198292,20.7697049 83.6380158,21.9999956 82.6743747,22.8727273 C81.7107335,23.7454589 80.3016567,24.1818182 78.4471019,24.1818182 Z M78.4471019,21.8727273 C79.428925,21.8727273 80.1198272,21.6545476 80.5198292,21.2181818 C80.9198312,20.781816 81.1198292,20.0303084 81.1198292,18.9636364 L81.1198292,14.5636364 C81.1198292,13.4606005 80.9198312,12.687881 80.5198292,12.2454545 C80.1198272,11.8030281 79.428925,11.5818182 78.4471019,11.5818182 C77.4652788,11.5818182 76.7743767,11.8030281 76.3743747,12.2454545 C75.9743727,12.687881 75.7743747,13.4606005 75.7743747,14.5636364 L75.7743747,18.9636364 C75.7743747,20.0303084 75.9743727,20.781816 76.3743747,21.2181818 C76.7743767,21.6545476 77.4652788,21.8727273 78.4471019,21.8727273 Z M90.6289201,16.4 L93.7561928,16.4 C94.4592267,16.4 94.9622519,16.2696983 95.2652838,16.0090909 C95.5683156,15.7484835 95.7198292,15.2848518 95.7198292,14.6181818 L95.7198292,13.4909091 C95.7198292,12.8363604 95.5683156,12.3848497 95.2652838,12.1363636 C94.9622519,11.8878775 94.4592267,11.7636364 93.7561928,11.7636364 L90.6289201,11.7636364 L90.6289201,16.4 Z M90.6289201,24 L87.6471019,24 L87.6471019,9.45454545 L94.2834656,9.45454545 C95.7016545,9.45454545 96.7925527,9.79696627 97.5561928,10.4818182 C98.319833,11.1666701 98.7016474,12.1393876 98.7016474,13.4 L98.7016474,14.6363636 C98.7016474,15.6909144 98.453165,16.5454513 97.9561928,17.2 C97.4592207,17.8545487 96.7380158,18.2969685 95.7925565,18.5272727 L99.1198292,24 L95.7198292,24 L92.4834656,18.6909091 L90.6289201,18.6909091 L90.6289201,24 Z"></path>
            </g>
            <g id="Logo-/-Black" fill-rule="nonzero">
                <path d="M14.9625,3 C8.46253571,3 3.175,8.15857143 3.175,14.5 C3.175,20.8414286 8.46253571,26 14.9625,26 C21.4624643,26 26.75,20.8414286 26.75,14.5 C26.75,8.15857143 21.4624643,3 14.9625,3 Z M14.9625,4.64409704 C16.1030598,4.64409704 17.0276954,5.54618059 17.0276954,6.65892183 C17.0276954,7.77166307 16.1030598,8.67374663 14.9625,8.67374663 C13.8219402,8.67374663 12.8973046,7.77166307 12.8973046,6.65892183 C12.8966056,5.54618059 13.8206693,4.64353908 14.9612291,4.64285714 C14.9616739,4.64285714 14.9620552,4.64285714 14.9625,4.64285714 L14.9625,4.64409704 Z M6.92412399,16.5148248 C5.78356422,16.5148248 4.85892857,15.6127412 4.85892857,14.5 C4.85892857,13.3872588 5.78356422,12.4851752 6.92412399,12.4851752 C8.06468376,12.4851752 8.98931941,13.3872588 8.98931941,14.5 C8.98931941,15.6127412 8.06468376,16.5148248 6.92412399,16.5148248 Z M14.9625,24.3571429 C13.8219402,24.3571429 12.8973046,23.4550593 12.8973046,22.3423181 C12.8973046,21.2295768 13.8219402,20.3274933 14.9625,20.3274933 C16.1030598,20.3274933 17.0276954,21.2295768 17.0276954,22.3423181 C17.0276954,23.4550593 16.1030598,24.3571429 14.9625,24.3571429 Z M14.9625,17.2234232 C13.421483,17.2234232 12.1722621,16.0046712 12.1722621,14.5012399 C12.1722621,12.9978086 13.421483,11.7790566 14.9625,11.7790566 C16.5030087,11.7790566 17.7520389,12.9970647 17.7527379,14.5 C17.7527379,16.0034313 16.503517,17.2221833 14.9625,17.2221833 L14.9625,17.2234232 Z M23.000876,16.5148248 C21.8603162,16.5148248 20.9356806,15.6127412 20.9356806,14.5 C20.9356806,13.3872588 21.8603162,12.4851752 23.000876,12.4851752 C24.1414358,12.4851752 25.0660714,13.3872588 25.0660714,14.5 C25.0660714,15.6127412 24.1414358,16.5148248 23.000876,16.5148248 Z" id="Shape" fill="#B1FFFF"></path>
                <g id="Group" transform="translate(0.100000, 0.000000)" fill="#304FFE">
                    <path d="M19.3178247,26.2099519 C24.3830714,24.2486042 28.1437573,19.4287547 28.1437573,13.6060606 C28.1437573,6.10835496 21.8435852,0.0303030303 14.0718787,0.0303030303 C6.30017211,0.0303030303 0,6.10835496 0,13.6060606 C0,21.1037663 6.30017211,27.1818182 14.0718787,27.1818182 L34.85,27.1818182 L34.85,26.2099519 L19.3178247,26.2099519 Z M1.00738281,13.5757576 C1.00738281,6.64121212 6.86783232,1 14.0718787,1 C21.275925,1 27.1363745,6.64121212 27.1363745,13.5757576 C27.1363745,20.510303 21.275925,26.1515152 14.0718787,26.1515152 C6.86783232,26.1515152 1.00738281,20.510303 1.00738281,13.5757576 Z" id="Shape"></path>
                    <path d="M14.0718787,10.429697 C12.2668375,10.429697 10.803551,11.8382424 10.803551,13.5757576 C10.803551,15.3132727 12.2668375,16.7218182 14.0718787,16.7218182 C15.8769198,16.7218182 17.3402063,15.3132727 17.3402063,13.5757576 C17.3370582,11.8394545 15.8756605,10.4327273 14.0718787,10.429697 Z M14.0718787,15.7521212 C12.8231647,15.7521212 11.8109339,14.7777576 11.8109339,13.5757576 C11.8109339,12.3737576 12.8231647,11.3993939 14.0718787,11.3993939 C15.3205926,11.3993939 16.3328235,12.3737576 16.3328235,13.5757576 C16.3297384,14.7764848 15.3192704,15.7491515 14.0718787,15.7521212 Z" id="Shape"></path>
                    <path d="M14.0718787,8.36363636 C15.4801998,8.36363636 16.6218164,7.26472727 16.6218164,5.90909091 C16.6218164,4.55345455 15.4801998,3.45454545 14.0718787,3.45454545 C12.6635575,3.45454545 11.5219409,4.55345455 11.5219409,5.90909091 C11.5233261,7.26412121 12.6641871,8.36230303 14.0718787,8.36363636 Z M14.0718787,4.42424242 C14.9238097,4.42424242 15.6144336,5.0890303 15.6144336,5.90909091 C15.6144336,6.72915152 14.9238097,7.39393939 14.0718787,7.39393939 C13.2199476,7.39393939 12.5293237,6.72915152 12.5293237,5.90909091 C12.5303941,5.08945455 13.2203883,4.42527273 14.0718787,4.42424242 Z" id="Shape"></path>
                    <path d="M14.0718787,18.7878788 C12.6635575,18.7878788 11.5219409,19.8867879 11.5219409,21.2424242 C11.5219409,22.5980606 12.6635575,23.6969697 14.0718787,23.6969697 C15.4801998,23.6969697 16.6218164,22.5980606 16.6218164,21.2424242 C16.6204313,19.8873939 15.4795702,18.7892121 14.0718787,18.7878788 Z M14.0718787,22.7272727 C13.2199476,22.7272727 12.5293237,22.0624848 12.5293237,21.2424242 C12.5293237,20.4223636 13.2199476,19.7575758 14.0718787,19.7575758 C14.9238097,19.7575758 15.6144336,20.4223636 15.6144336,21.2424242 C15.6133632,22.0620606 14.923369,22.7262424 14.0718787,22.7272727 Z" id="Shape"></path>
                    <path d="M24.5851775,13.5757576 C24.5851775,12.2201212 23.443561,11.1212121 22.0352398,11.1212121 C20.6269186,11.1212121 19.4853021,12.2201212 19.4853021,13.5757576 C19.4853021,14.9313939 20.6269186,16.030303 22.0352398,16.030303 C22.0356805,16.030303 22.0360583,16.030303 22.036499,16.030303 C23.443561,16.0279394 24.5834146,14.9301818 24.5851775,13.5757576 Z M22.036499,15.0606061 C21.184568,15.0606061 20.4939441,14.3958182 20.4939441,13.5757576 C20.4939441,12.755697 21.184568,12.0909091 22.036499,12.0909091 C22.8884301,12.0909091 23.579054,12.755697 23.579054,13.5757576 C23.5779836,14.3953939 22.8879893,15.0595758 22.036499,15.0606061 Z" id="Shape"></path>
                    <path d="M6.1072583,11.1212121 C4.69893713,11.1212121 3.55732056,12.2201212 3.55732056,13.5757576 C3.55732056,14.9313939 4.69893713,16.030303 6.1072583,16.030303 C7.51557947,16.030303 8.65719604,14.9313939 8.65719604,13.5757576 C8.65543312,12.2208485 7.51482394,11.1229091 6.1072583,11.1212121 Z M6.1072583,15.0606061 C5.25532725,15.0606061 4.56470337,14.3958182 4.56470337,13.5757576 C4.56470337,12.755697 5.25532725,12.0909091 6.1072583,12.0909091 C6.95918935,12.0909091 7.64981323,12.755697 7.64981323,13.5757576 C7.64874289,14.3953939 6.95874862,15.0595758 6.1072583,15.0606061 Z" id="Shape"></path>
                </g>
            </g>
        </g>
    </g>
</svg>